<mxfile host="app.diagrams.net" modified="2023-03-15T09:34:36.471Z" agent="5.0 (Windows NT 10.0; Win64; x64) AppleWebKit/537.36 (KHTML, like Gecko) Chrome/110.0.0.0 Safari/537.36" etag="bpbq2B1UqUSXF5TkzUyY" version="17.1.5" type="github">
  <diagram id="nNnDvNXIN6dUj9keKaT8" name="Page-1">
    <mxGraphModel dx="1422" dy="698" grid="1" gridSize="10" guides="1" tooltips="1" connect="1" arrows="1" fold="1" page="1" pageScale="1" pageWidth="827" pageHeight="1169" background="#FCE7CD" math="0" shadow="0">
      <root>
        <mxCell id="0" />
        <mxCell id="1" parent="0" />
        <mxCell id="mTTqI1Kj2CIqjoFTkaEe-4" style="edgeStyle=orthogonalEdgeStyle;rounded=0;orthogonalLoop=1;jettySize=auto;html=1;exitX=0.5;exitY=1;exitDx=0;exitDy=0;exitPerimeter=0;labelBackgroundColor=#FCE7CD;strokeColor=#23445D;" edge="1" parent="1" source="mTTqI1Kj2CIqjoFTkaEe-1" target="mTTqI1Kj2CIqjoFTkaEe-2">
          <mxGeometry relative="1" as="geometry" />
        </mxCell>
        <mxCell id="mTTqI1Kj2CIqjoFTkaEe-1" value="开始" style="strokeWidth=2;html=1;shape=mxgraph.flowchart.terminator;whiteSpace=wrap;rounded=0;fillColor=#182E3E;strokeColor=#FFFFFF;fontColor=#FFFFFF;" vertex="1" parent="1">
          <mxGeometry x="150" y="280" width="100" height="60" as="geometry" />
        </mxCell>
        <mxCell id="mTTqI1Kj2CIqjoFTkaEe-5" style="edgeStyle=orthogonalEdgeStyle;rounded=0;orthogonalLoop=1;jettySize=auto;html=1;exitX=0.5;exitY=1;exitDx=0;exitDy=0;labelBackgroundColor=#FCE7CD;strokeColor=#23445D;" edge="1" parent="1" source="mTTqI1Kj2CIqjoFTkaEe-2">
          <mxGeometry relative="1" as="geometry">
            <mxPoint x="200" y="540" as="targetPoint" />
          </mxGeometry>
        </mxCell>
        <mxCell id="mTTqI1Kj2CIqjoFTkaEe-2" value="领取质检单" style="rounded=0;whiteSpace=wrap;html=1;fillColor=#182E3E;strokeColor=#FFFFFF;fontColor=#FFFFFF;" vertex="1" parent="1">
          <mxGeometry x="140" y="410" width="120" height="60" as="geometry" />
        </mxCell>
        <mxCell id="mTTqI1Kj2CIqjoFTkaEe-9" value="是" style="edgeStyle=orthogonalEdgeStyle;rounded=0;orthogonalLoop=1;jettySize=auto;html=1;entryX=0;entryY=0.5;entryDx=0;entryDy=0;entryPerimeter=0;labelBackgroundColor=#FCE7CD;strokeColor=#23445D;" edge="1" parent="1" source="mTTqI1Kj2CIqjoFTkaEe-7" target="mTTqI1Kj2CIqjoFTkaEe-8">
          <mxGeometry relative="1" as="geometry" />
        </mxCell>
        <mxCell id="mTTqI1Kj2CIqjoFTkaEe-12" value="否" style="edgeStyle=orthogonalEdgeStyle;rounded=0;orthogonalLoop=1;jettySize=auto;html=1;exitX=0.5;exitY=1;exitDx=0;exitDy=0;exitPerimeter=0;labelBackgroundColor=#FCE7CD;strokeColor=#23445D;" edge="1" parent="1" source="mTTqI1Kj2CIqjoFTkaEe-7" target="mTTqI1Kj2CIqjoFTkaEe-10">
          <mxGeometry relative="1" as="geometry" />
        </mxCell>
        <mxCell id="mTTqI1Kj2CIqjoFTkaEe-7" value="是否领取" style="strokeWidth=2;html=1;shape=mxgraph.flowchart.decision;whiteSpace=wrap;rounded=0;fillColor=#182E3E;strokeColor=#FFFFFF;fontColor=#FFFFFF;" vertex="1" parent="1">
          <mxGeometry x="150" y="540" width="100" height="100" as="geometry" />
        </mxCell>
        <mxCell id="mTTqI1Kj2CIqjoFTkaEe-8" value="结束" style="strokeWidth=2;html=1;shape=mxgraph.flowchart.terminator;whiteSpace=wrap;rounded=0;fillColor=#182E3E;strokeColor=#FFFFFF;fontColor=#FFFFFF;" vertex="1" parent="1">
          <mxGeometry x="314" y="560" width="100" height="60" as="geometry" />
        </mxCell>
        <mxCell id="mTTqI1Kj2CIqjoFTkaEe-14" style="edgeStyle=orthogonalEdgeStyle;rounded=0;orthogonalLoop=1;jettySize=auto;html=1;exitX=1;exitY=0.5;exitDx=0;exitDy=0;labelBackgroundColor=#FCE7CD;strokeColor=#23445D;" edge="1" parent="1" source="mTTqI1Kj2CIqjoFTkaEe-10" target="mTTqI1Kj2CIqjoFTkaEe-13">
          <mxGeometry relative="1" as="geometry" />
        </mxCell>
        <mxCell id="mTTqI1Kj2CIqjoFTkaEe-10" value="开始质检" style="rounded=0;whiteSpace=wrap;html=1;fillColor=#182E3E;strokeColor=#FFFFFF;fontColor=#FFFFFF;" vertex="1" parent="1">
          <mxGeometry x="140" y="690" width="120" height="60" as="geometry" />
        </mxCell>
        <mxCell id="mTTqI1Kj2CIqjoFTkaEe-17" value="是" style="edgeStyle=orthogonalEdgeStyle;rounded=0;orthogonalLoop=1;jettySize=auto;html=1;exitX=1;exitY=0.5;exitDx=0;exitDy=0;exitPerimeter=0;labelBackgroundColor=#FCE7CD;strokeColor=#23445D;" edge="1" parent="1" source="mTTqI1Kj2CIqjoFTkaEe-13" target="mTTqI1Kj2CIqjoFTkaEe-16">
          <mxGeometry relative="1" as="geometry" />
        </mxCell>
        <mxCell id="mTTqI1Kj2CIqjoFTkaEe-20" value="否" style="edgeStyle=orthogonalEdgeStyle;rounded=0;orthogonalLoop=1;jettySize=auto;html=1;exitX=0.5;exitY=1;exitDx=0;exitDy=0;exitPerimeter=0;entryX=0.5;entryY=0;entryDx=0;entryDy=0;labelBackgroundColor=#FCE7CD;strokeColor=#23445D;" edge="1" parent="1" source="mTTqI1Kj2CIqjoFTkaEe-13" target="mTTqI1Kj2CIqjoFTkaEe-15">
          <mxGeometry relative="1" as="geometry" />
        </mxCell>
        <mxCell id="mTTqI1Kj2CIqjoFTkaEe-13" value="通过" style="strokeWidth=2;html=1;shape=mxgraph.flowchart.decision;whiteSpace=wrap;rounded=0;fillColor=#182E3E;strokeColor=#FFFFFF;fontColor=#FFFFFF;" vertex="1" parent="1">
          <mxGeometry x="314" y="670" width="100" height="100" as="geometry" />
        </mxCell>
        <mxCell id="mTTqI1Kj2CIqjoFTkaEe-22" style="edgeStyle=orthogonalEdgeStyle;rounded=0;orthogonalLoop=1;jettySize=auto;html=1;exitX=1;exitY=0.5;exitDx=0;exitDy=0;labelBackgroundColor=#FCE7CD;strokeColor=#23445D;" edge="1" parent="1" source="mTTqI1Kj2CIqjoFTkaEe-15" target="mTTqI1Kj2CIqjoFTkaEe-21">
          <mxGeometry relative="1" as="geometry" />
        </mxCell>
        <mxCell id="mTTqI1Kj2CIqjoFTkaEe-15" value="修改标签" style="rounded=0;whiteSpace=wrap;html=1;fillColor=#182E3E;strokeColor=#FFFFFF;fontColor=#FFFFFF;" vertex="1" parent="1">
          <mxGeometry x="304" y="820" width="120" height="60" as="geometry" />
        </mxCell>
        <mxCell id="mTTqI1Kj2CIqjoFTkaEe-36" style="edgeStyle=orthogonalEdgeStyle;curved=0;rounded=1;sketch=0;orthogonalLoop=1;jettySize=auto;html=1;exitX=1;exitY=0.5;exitDx=0;exitDy=0;entryX=0;entryY=0.5;entryDx=0;entryDy=0;entryPerimeter=0;labelBackgroundColor=#FCE7CD;strokeColor=#23445D;" edge="1" parent="1" source="mTTqI1Kj2CIqjoFTkaEe-16" target="mTTqI1Kj2CIqjoFTkaEe-31">
          <mxGeometry relative="1" as="geometry" />
        </mxCell>
        <mxCell id="mTTqI1Kj2CIqjoFTkaEe-16" value="开始复检" style="rounded=0;whiteSpace=wrap;html=1;fillColor=#182E3E;strokeColor=#FFFFFF;fontColor=#FFFFFF;" vertex="1" parent="1">
          <mxGeometry x="460" y="690" width="120" height="60" as="geometry" />
        </mxCell>
        <mxCell id="mTTqI1Kj2CIqjoFTkaEe-26" value="否" style="edgeStyle=orthogonalEdgeStyle;rounded=0;orthogonalLoop=1;jettySize=auto;html=1;exitX=1;exitY=0.5;exitDx=0;exitDy=0;exitPerimeter=0;entryX=0;entryY=0.5;entryDx=0;entryDy=0;entryPerimeter=0;labelBackgroundColor=#FCE7CD;strokeColor=#23445D;" edge="1" parent="1" source="mTTqI1Kj2CIqjoFTkaEe-21" target="mTTqI1Kj2CIqjoFTkaEe-24">
          <mxGeometry relative="1" as="geometry" />
        </mxCell>
        <mxCell id="mTTqI1Kj2CIqjoFTkaEe-34" style="edgeStyle=orthogonalEdgeStyle;curved=0;rounded=1;sketch=0;orthogonalLoop=1;jettySize=auto;html=1;exitX=0.5;exitY=1;exitDx=0;exitDy=0;exitPerimeter=0;entryX=0;entryY=0.5;entryDx=0;entryDy=0;labelBackgroundColor=#FCE7CD;strokeColor=#23445D;fontColor=#000000;" edge="1" parent="1" source="mTTqI1Kj2CIqjoFTkaEe-21" target="mTTqI1Kj2CIqjoFTkaEe-27">
          <mxGeometry relative="1" as="geometry" />
        </mxCell>
        <mxCell id="mTTqI1Kj2CIqjoFTkaEe-35" value="是" style="edgeLabel;html=1;align=center;verticalAlign=middle;resizable=0;points=[];labelBackgroundColor=#FCE7CD;fontColor=#000000;fontStyle=1" vertex="1" connectable="0" parent="mTTqI1Kj2CIqjoFTkaEe-34">
          <mxGeometry x="-0.725" y="-3" relative="1" as="geometry">
            <mxPoint as="offset" />
          </mxGeometry>
        </mxCell>
        <mxCell id="mTTqI1Kj2CIqjoFTkaEe-21" value="是否确认" style="strokeWidth=2;html=1;shape=mxgraph.flowchart.decision;whiteSpace=wrap;rounded=0;fillColor=#182E3E;strokeColor=#FFFFFF;fontColor=#FFFFFF;" vertex="1" parent="1">
          <mxGeometry x="470" y="800" width="100" height="100" as="geometry" />
        </mxCell>
        <mxCell id="mTTqI1Kj2CIqjoFTkaEe-28" value="否" style="edgeStyle=orthogonalEdgeStyle;rounded=0;orthogonalLoop=1;jettySize=auto;html=1;exitX=0.5;exitY=1;exitDx=0;exitDy=0;exitPerimeter=0;entryX=0.5;entryY=0;entryDx=0;entryDy=0;labelBackgroundColor=#FCE7CD;strokeColor=#23445D;" edge="1" parent="1" source="mTTqI1Kj2CIqjoFTkaEe-24" target="mTTqI1Kj2CIqjoFTkaEe-27">
          <mxGeometry relative="1" as="geometry" />
        </mxCell>
        <mxCell id="mTTqI1Kj2CIqjoFTkaEe-30" value="是" style="edgeStyle=orthogonalEdgeStyle;rounded=0;orthogonalLoop=1;jettySize=auto;html=1;exitX=1;exitY=0.5;exitDx=0;exitDy=0;exitPerimeter=0;labelBackgroundColor=#FCE7CD;strokeColor=#23445D;" edge="1" parent="1" source="mTTqI1Kj2CIqjoFTkaEe-24" target="mTTqI1Kj2CIqjoFTkaEe-29">
          <mxGeometry relative="1" as="geometry" />
        </mxCell>
        <mxCell id="mTTqI1Kj2CIqjoFTkaEe-24" value="复议通过" style="strokeWidth=2;html=1;shape=mxgraph.flowchart.decision;whiteSpace=wrap;rounded=0;fillColor=#182E3E;strokeColor=#FFFFFF;fontColor=#FFFFFF;" vertex="1" parent="1">
          <mxGeometry x="620" y="800" width="100" height="100" as="geometry" />
        </mxCell>
        <mxCell id="mTTqI1Kj2CIqjoFTkaEe-27" value="扣款结束" style="rounded=0;whiteSpace=wrap;html=1;fillColor=#182E3E;strokeColor=#FFFFFF;fontColor=#FFFFFF;" vertex="1" parent="1">
          <mxGeometry x="610" y="940" width="120" height="60" as="geometry" />
        </mxCell>
        <mxCell id="mTTqI1Kj2CIqjoFTkaEe-29" value="结束,返回退款" style="rounded=0;whiteSpace=wrap;html=1;fillColor=#182E3E;strokeColor=#FFFFFF;fontColor=#FFFFFF;" vertex="1" parent="1">
          <mxGeometry x="760" y="820" width="120" height="60" as="geometry" />
        </mxCell>
        <mxCell id="mTTqI1Kj2CIqjoFTkaEe-41" value="是" style="edgeStyle=orthogonalEdgeStyle;curved=0;rounded=1;sketch=0;orthogonalLoop=1;jettySize=auto;html=1;exitX=1;exitY=0.5;exitDx=0;exitDy=0;exitPerimeter=0;labelBackgroundColor=#FCE7CD;strokeColor=#23445D;" edge="1" parent="1" source="mTTqI1Kj2CIqjoFTkaEe-31" target="mTTqI1Kj2CIqjoFTkaEe-37">
          <mxGeometry relative="1" as="geometry" />
        </mxCell>
        <mxCell id="mTTqI1Kj2CIqjoFTkaEe-43" value="否" style="edgeStyle=orthogonalEdgeStyle;curved=0;rounded=1;sketch=0;orthogonalLoop=1;jettySize=auto;html=1;exitX=0.5;exitY=0;exitDx=0;exitDy=0;exitPerimeter=0;entryX=0.5;entryY=1;entryDx=0;entryDy=0;labelBackgroundColor=#FCE7CD;strokeColor=#23445D;" edge="1" parent="1" source="mTTqI1Kj2CIqjoFTkaEe-31" target="mTTqI1Kj2CIqjoFTkaEe-42">
          <mxGeometry relative="1" as="geometry" />
        </mxCell>
        <mxCell id="mTTqI1Kj2CIqjoFTkaEe-31" value="复检通过" style="strokeWidth=2;html=1;shape=mxgraph.flowchart.decision;whiteSpace=wrap;rounded=0;fillColor=#182E3E;strokeColor=#FFFFFF;fontColor=#FFFFFF;" vertex="1" parent="1">
          <mxGeometry x="620" y="670" width="100" height="100" as="geometry" />
        </mxCell>
        <mxCell id="mTTqI1Kj2CIqjoFTkaEe-37" value="结束,完成质检" style="rounded=0;whiteSpace=wrap;html=1;fillColor=#182E3E;strokeColor=#FFFFFF;fontColor=#FFFFFF;" vertex="1" parent="1">
          <mxGeometry x="760" y="690" width="120" height="60" as="geometry" />
        </mxCell>
        <mxCell id="mTTqI1Kj2CIqjoFTkaEe-42" value="结束,质检修改标签" style="rounded=0;whiteSpace=wrap;html=1;fillColor=#182E3E;strokeColor=#FFFFFF;fontColor=#FFFFFF;" vertex="1" parent="1">
          <mxGeometry x="610" y="560" width="120" height="60" as="geometry" />
        </mxCell>
      </root>
    </mxGraphModel>
  </diagram>
</mxfile>
